<svg t="1744298882159" class="icon" viewBox="0 0 1024 1024" version="1.1" xmlns="http://www.w3.org/2000/svg" p-id="1527" width="200" height="200">
<path d="M625.527811 196.499996l-113.527811-113.52781-113.527811 113.52781-58.558048-58.530445 113.88664-113.872838a82.39254 82.39254 0 0 1 116.398438 0l113.88664 113.872838zM887.458801 682.643582l-58.558048-58.558048 112.106298-112.106298-107.648544-107.579538 58.544246-58.558048 107.938367 107.938367a82.39254 82.39254 0 0 1 0 116.398439zM512 1023.999876a82.047512 82.047512 0 0 1-58.199219-24.069111l-113.320795-113.320794 58.558048-58.58565 112.961966 112.961966 0.276022-0.262221 117.033289-112.161502 57.302148 59.772544-116.784869 111.926884a82.033711 82.033711 0 0 1-57.82659 23.737884zM139.025397 685.113978l-114.935523-114.935522a82.39254 82.39254 0 0 1 0-116.398439l1.38011-1.269701 113.90044-104.170668 55.880635 61.097449-112.216706 102.542139 114.549091 114.549092z" fill="#0077ffff" p-id="1528"></path>
<path d="M856.751363 410.582588a41.403286 41.403286 0 0 1-41.403286-41.403286V208.631159H654.799934a41.403286 41.403286 0 0 1 0-82.806572h161.058784a82.39254 82.39254 0 0 1 82.295931 82.295932v161.058783a41.403286 41.403286 0 0 1-41.403286 41.403286zM815.858718 898.133886H660.485985a41.403286 41.403286 0 1 1 0-82.806573h154.862092V657.152959a41.403286 41.403286 0 0 1 82.806572 0v158.712597a82.39254 82.39254 0 0 1-82.295931 82.26833zM367.957967 898.133886H208.141282a82.39254 82.39254 0 0 1-82.295931-82.295932V657.249566a41.403286 41.403286 0 0 1 82.806572 0v158.077747H367.957967a41.403286 41.403286 0 0 1 0 82.806573zM167.248637 416.103026a41.403286 41.403286 0 0 1-41.403286-41.403286V208.120519a82.39254 82.39254 0 0 1 82.295931-82.295932h161.058784a41.403286 41.403286 0 0 1 0 82.806572H208.651923V374.69974a41.403286 41.403286 0 0 1-41.403286 41.403286z" fill="#499DFF" p-id="1529"></path>
<path d="M669.536 389.344A85.664 85.664 0 1 1 583.552 304h0.64a85.344 85.344 0 0 1 85.344 85.344z" fill="#FFC131" p-id="1694"></path>
<path d="M440.416 634.176m-85.344 0a85.344 85.344 0 1 0 170.688 0 85.344 85.344 0 1 0-170.688 0Z" fill="#24C8DB" p-id="1695"></path>
<path d="M761.312 663.392a332.416 332.416 0 0 1-112.64 45.888 231.36 231.36 0 0 0 11.232-103.328 229.44 229.44 0 1 0-261.824-351.04 385.056 385.056 0 0 0-125.152 36.576 326.4 326.4 0 1 1 488.384 371.904zM276.768 351.168l80 9.6a246.4 246.4 0 0 1 10.272-45.568 327.296 327.296 0 0 0-90.272 35.968z" fill="#FFC131" p-id="1696"></path>
<path d="M262.656 360.16a325.376 325.376 0 0 1 113.6-46.208 228.128 228.128 0 0 0-12.8 103.648 229.44 229.44 0 1 0 263.104 350.72 388.896 388.896 0 0 0 125.152-35.936A326.656 326.656 0 1 1 262.656 360.16zM747.168 672z" fill="#24C8DB" p-id="1697"></path>
</svg>
